<svg width="111" height="24" viewBox="0 0 111 24" fill="none" xmlns="http://www.w3.org/2000/svg">
  <g clip-path="url(#clip0_5016_8772)">
    <path d="M31.0084 3.17664C29.7781 3.17664 28.7756 4.17911 28.7756 5.40942C28.7756 6.63974 29.7781 7.64221 31.0084 7.64221C32.2387 7.64221 33.2412 6.63974 33.2412 5.40942C33.2412 4.17911 32.2387 3.17664 31.0084 3.17664Z" fill="white"/>
    <path d="M20.7559 19.2504H24.3215L24.3329 11.8913H27.8985V8.54211H20.7673L20.7559 19.2504Z" fill="white"/>
    <path d="M32.7968 8.54211H29.2312V19.2618H32.7968V8.54211Z" fill="white"/>
    <path d="M74.81 0.499634H71.4038V19.2505H74.81V0.499634Z" fill="white"/>
    <path d="M40.1561 8.54211H34.1413L34.1299 23.4995H37.6955L37.7069 19.2618H40.1561C43.118 19.2618 45.5103 16.8581 45.5103 13.9076C45.5103 10.9572 43.118 8.54211 40.1561 8.54211ZM40.1561 15.9126H37.7069V11.8913H40.1561C41.2611 11.8913 42.1611 12.7912 42.1611 13.8963C42.1611 15.0013 41.2725 15.9126 40.1561 15.9126Z" fill="white"/>
    <path d="M11.6082 8.54223V11.8914H15.6409C15.1511 14.4318 12.6904 16.357 9.70579 16.357C6.32244 16.357 3.57702 13.6116 3.57702 10.2168C3.57702 6.82207 6.32244 4.07665 9.70579 4.07665C11.4601 4.07665 13.0322 4.81712 14.1486 5.99047L16.6776 3.4615C14.9118 1.63881 12.4398 0.499634 9.70579 0.499634C4.35166 0.499634 0 4.85129 0 10.2168C0 15.5823 4.34027 19.934 9.70579 19.934C14.4903 19.934 18.4661 16.4595 19.2635 11.8914C19.3546 11.3446 19.4116 10.7864 19.4116 10.2168C19.4116 9.64723 19.3546 9.08903 19.2635 8.54223H11.6082Z" fill="white"/>
    <path d="M62.9579 16.1861C59.611 16.1861 56.8952 13.4703 56.8952 10.112C56.8952 6.75372 59.611 4.03792 62.9579 4.03792C64.6929 4.03792 66.2479 4.77041 67.3529 5.93123L69.8545 3.4296C68.1081 1.62628 65.6623 0.499634 62.9579 0.499634C57.6619 0.499634 53.3569 4.80459 53.3569 10.112C53.3569 15.4194 57.6505 19.7244 62.9579 19.7244C65.6509 19.7244 68.0854 18.6091 69.8317 16.8172L67.4543 14.3611C66.3606 15.4764 64.7498 16.1873 62.9579 16.1873V16.1861Z" fill="white"/>
    <path d="M107.493 0.499634V8.54223H105.499C102.537 8.54223 100.145 10.9459 100.145 13.8964C100.145 16.8468 102.537 19.2505 105.499 19.2505H110.899L110.91 0.499634H107.493ZM105.488 15.9013C104.383 15.9013 103.483 15.0014 103.483 13.8964C103.483 12.7914 104.383 11.8914 105.488 11.8914H107.481V15.9127H105.488V15.9013Z" fill="white"/>
    <path d="M95.5429 14.3297C95.5429 14.6372 95.4745 14.9106 95.3378 15.1613C95.2011 15.4119 95.0188 15.5942 94.7796 15.7309C94.5404 15.8676 94.267 15.9359 93.9708 15.9359C93.6746 15.9359 93.4012 15.8676 93.162 15.7309C92.9228 15.5942 92.7291 15.4005 92.5924 15.1499C92.4557 14.8993 92.3873 14.6259 92.3873 14.3183V8.53125H88.9812V14.3069V14.3183C88.9812 15.241 89.1976 16.0954 89.6305 16.8586C90.0634 17.6219 90.6786 18.2257 91.4418 18.6699C92.2051 19.1028 93.0595 19.3193 93.9936 19.3193C94.9277 19.3193 95.7707 19.1028 96.5226 18.6699C97.2858 18.237 97.8896 17.6219 98.3339 16.8586C98.7667 16.0954 98.9832 15.241 98.9832 14.3183V14.3069V8.53125H95.577L95.5429 14.3297Z" fill="white"/>
    <path d="M87.1495 10.9543C86.6437 10.0657 85.9271 9.3492 85.0386 8.84341C84.15 8.33761 83.1624 8.07788 82.0756 8.07788C80.9888 8.07788 79.9886 8.33761 79.1001 8.84341C78.2115 9.3492 77.495 10.0657 76.9892 10.9543C76.4834 11.8429 76.2236 12.8431 76.2236 13.9298C76.2236 15.0166 76.4834 16.0043 76.9892 16.8928C77.495 17.7814 78.2115 18.4979 79.1001 19.0037C79.9886 19.5095 80.9888 19.7693 82.0756 19.7693C83.1624 19.7693 84.15 19.5095 85.0386 19.0037C85.9271 18.4979 86.6437 17.7814 87.1495 16.8928C87.6553 16.0043 87.915 15.0041 87.915 13.9298C87.915 12.8556 87.6553 11.8429 87.1495 10.9543ZM84.1295 15.1545C83.9313 15.511 83.6465 15.8061 83.2831 16.0293C82.9345 16.2435 82.5392 16.3483 82.0744 16.3483C81.6097 16.3483 81.2394 16.2446 80.8715 16.0328C80.491 15.7992 80.213 15.5156 80.0194 15.1658C79.8086 14.7865 79.7061 14.3821 79.7061 13.9298C79.7061 13.4776 79.8007 13.0652 80.0057 12.6836C80.2062 12.3236 80.4785 12.0411 80.8419 11.8178C81.2144 11.6025 81.6119 11.4988 82.0631 11.4988C82.5142 11.4988 82.9209 11.6025 83.2808 11.8155C83.642 12.024 83.9279 12.3145 84.1307 12.6802C84.3414 13.0595 84.4439 13.4639 84.4439 13.9173C84.4439 14.3707 84.3414 14.774 84.1307 15.1533L84.1295 15.1545Z" fill="white"/>
  </g>
  <defs>
    <clipPath id="clip0_5016_8772">
      <rect width="110.91" height="23" fill="white" transform="translate(0 0.5)"/>
    </clipPath>
  </defs>
</svg>
