<svg width="24" height="24" viewBox="0 0 24 24" fill="none" xmlns="http://www.w3.org/2000/svg">
<path fill-rule="evenodd" clip-rule="evenodd" d="M8.83772 3.81352C8.98952 2.90037 9.77833 2.22855 10.7055 2.22855H13.2928C14.2199 2.22855 15.0088 2.90037 15.1606 3.81352L15.3735 5.09457C15.3913 5.2013 15.4707 5.32779 15.6293 5.41582C15.7118 5.4616 15.7933 5.50888 15.8738 5.55763C16.0291 5.65162 16.1769 5.65675 16.2762 5.61947L17.4899 5.16358C18.358 4.83752 19.3328 5.18903 19.7951 5.99178L21.0887 8.23822C21.5505 9.04023 21.3668 10.0597 20.6526 10.6492L19.6509 11.476C19.5683 11.5442 19.4984 11.6761 19.5018 11.8583C19.5026 11.9054 19.5031 11.9526 19.5031 12C19.5031 12.0473 19.5026 12.0945 19.5018 12.1417C19.4984 12.3238 19.5683 12.4558 19.6509 12.5239L20.6526 13.3507C21.3668 13.9402 21.5505 14.9597 21.0887 15.7617L19.7951 18.0082C19.3328 18.8109 18.358 19.1624 17.4899 18.8363L16.2762 18.3805C16.1769 18.3432 16.0291 18.3483 15.8738 18.4423C15.7933 18.4911 15.7118 18.5384 15.6293 18.5841C15.4707 18.6722 15.3913 18.7986 15.3735 18.9054L15.1606 20.1864C15.0088 21.0996 14.2199 21.7714 13.2928 21.7714H10.7055C9.77833 21.7714 8.98952 21.0996 8.83772 20.1864L8.62476 18.9054C8.60702 18.7986 8.52761 18.6722 8.369 18.5841C8.28651 18.5384 8.20499 18.4911 8.12446 18.4423C7.96921 18.3483 7.82136 18.3432 7.72209 18.3805L6.50838 18.8364C5.64029 19.1624 4.66548 18.8109 4.20321 18.0082L2.90959 15.7617C2.44775 14.9597 2.63147 13.9402 3.34564 13.3508L4.34738 12.5239C4.42996 12.4558 4.49988 12.3239 4.49652 12.1417C4.49565 12.0945 4.49521 12.0473 4.49521 12C4.49521 11.9526 4.49565 11.9054 4.49652 11.8583C4.49988 11.6761 4.42996 11.5442 4.34738 11.476L3.34564 10.6492C2.63147 10.0597 2.44775 9.04025 2.90959 8.23824L4.20321 5.9918C4.66548 5.18905 5.64029 4.83754 6.50838 5.1636L7.72208 5.61948C7.82135 5.65676 7.96919 5.65163 8.12445 5.55764C8.20498 5.50888 8.28651 5.4616 8.36899 5.41582C8.52761 5.32779 8.60702 5.2013 8.62476 5.09457L8.83772 3.81352ZM10.7055 3.7714C10.5357 3.7714 10.3882 3.89476 10.3597 4.06653L10.1467 5.34758C10.0401 5.98893 9.62088 6.48558 9.11768 6.76485C9.05219 6.80119 8.98745 6.83874 8.92349 6.87747C8.43036 7.17601 7.78959 7.29293 7.17958 7.06381L5.96588 6.60793C5.80666 6.54813 5.62648 6.61195 5.54023 6.76173L4.24661 9.00817C4.15994 9.15869 4.19496 9.3497 4.32775 9.4593L5.3295 10.2861C5.83042 10.6996 6.04974 11.3113 6.03911 11.8868C6.03842 11.9244 6.03807 11.9621 6.03807 12C6.03807 12.0378 6.03842 12.0755 6.03911 12.1132C6.04974 12.6886 5.83042 13.3004 5.3295 13.7139L4.32775 14.5407C4.19496 14.6503 4.15994 14.8413 4.24661 14.9918L5.54023 17.2382C5.62648 17.388 5.80666 17.4518 5.96588 17.392L7.17959 16.9361C7.7896 16.707 8.43037 16.8239 8.9235 17.1225C8.98746 17.1612 9.0522 17.1988 9.11768 17.2351C9.62088 17.5144 10.0401 18.011 10.1467 18.6524L10.3597 19.9334C10.3882 20.1052 10.5357 20.2285 10.7055 20.2285H13.2928C13.4626 20.2285 13.61 20.1052 13.6386 19.9334L13.8515 18.6524C13.9582 18.011 14.3774 17.5144 14.8806 17.2351C14.9461 17.1988 15.0108 17.1612 15.0748 17.1225C15.5679 16.8239 16.2087 16.707 16.8187 16.9361L18.0324 17.392C18.1916 17.4518 18.3718 17.388 18.458 17.2382L19.7517 14.9918C19.8383 14.8413 19.8033 14.6503 19.6705 14.5407L18.6688 13.7138C18.1679 13.3004 17.9485 12.6886 17.9592 12.1132C17.9599 12.0755 17.9602 12.0378 17.9602 12C17.9602 11.9621 17.9599 11.9244 17.9592 11.8868C17.9485 11.3113 18.1679 10.6995 18.6688 10.2861L19.6705 9.45928C19.8033 9.34968 19.8383 9.15867 19.7517 9.00815L18.458 6.76171C18.3718 6.61193 18.1916 6.54811 18.0324 6.60792L16.8187 7.0638C16.2087 7.29292 15.5679 7.17601 15.0748 6.87746C15.0108 6.83874 14.9461 6.80119 14.8806 6.76485C14.3774 6.48558 13.9582 5.98894 13.8515 5.34758L13.6386 4.06653C13.61 3.89476 13.4626 3.7714 13.2928 3.7714H10.7055ZM11.9989 9.77132C10.7743 9.77132 9.77811 10.7672 9.77811 11.9999C9.77811 13.2326 10.7743 14.2285 11.9989 14.2285C13.2235 14.2285 14.2197 13.2326 14.2197 11.9999C14.2197 10.7672 13.2235 9.77132 11.9989 9.77132ZM8.23526 11.9999C8.23526 9.91888 9.91841 8.22847 11.9989 8.22847C14.0794 8.22847 15.7626 9.91888 15.7626 11.9999C15.7626 14.0809 14.0794 15.7713 11.9989 15.7713C9.91841 15.7713 8.23526 14.0809 8.23526 11.9999Z" fill="white"/>
</svg>
