<svg width="36" height="36" viewBox="0 0 36 36" fill="none" xmlns="http://www.w3.org/2000/svg">
<path d="M18.518 29.8711C18.1937 30.043 17.8063 30.043 17.482 29.8711L18 28.875L18.518 29.8711ZM28.7714 13.0561C28.7711 10.4569 26.5538 8.25009 23.6948 8.25C21.5678 8.25 19.7759 9.48442 19.0156 11.1899C18.8355 11.5932 18.4382 11.852 18 11.852C17.5618 11.852 17.1645 11.5932 16.9844 11.1899C16.2242 9.48454 14.4322 8.25 12.3038 8.25C9.44744 8.25016 7.22895 10.4569 7.22857 13.0561C7.22857 17.3371 9.91467 21.0113 12.8116 23.707C14.2412 25.0373 15.6765 26.0865 16.7551 26.8022C17.2648 27.1404 17.6932 27.4017 18 27.583C18.3068 27.4017 18.7352 27.1404 19.2449 26.8022C20.3235 26.0865 21.7588 25.0373 23.1884 23.707C26.0853 21.0113 28.7714 17.3371 28.7714 13.0561ZM31 13.0561C31 18.2922 27.743 22.5283 24.6973 25.3623C23.1558 26.7966 21.6192 27.9186 20.4694 28.6816C19.8934 29.0639 19.4111 29.3577 19.0708 29.5576C18.9005 29.6576 18.7658 29.7352 18.6718 29.7876C18.6248 29.8137 18.5873 29.8336 18.5615 29.8476C18.5488 29.8545 18.5383 29.8599 18.531 29.8637L18.5194 29.8696V29.8711L18 28.875L17.4806 29.8711V29.8696L17.469 29.8637C17.4617 29.8599 17.4512 29.8545 17.4385 29.8476C17.4127 29.8336 17.3752 29.8137 17.3282 29.7876C17.2342 29.7352 17.0995 29.6576 16.9292 29.5576C16.5889 29.3577 16.1066 29.0639 15.5306 28.6816C14.3808 27.9186 12.8442 26.7966 11.3027 25.3623C8.25701 22.5283 5 18.2922 5 13.0561C5.00037 9.10482 8.32793 6.00016 12.3038 6C14.5938 6 16.6542 7.02291 18 8.64111C19.3457 7.02297 21.4057 6 23.6948 6C27.6733 6.00009 30.9996 9.10478 31 13.0561Z" fill="white"/>
</svg>
