<svg width="20" height="20" viewBox="0 0 20 20" fill="none" xmlns="http://www.w3.org/2000/svg">
<path fill-rule="evenodd" clip-rule="evenodd" d="M10.25 3.42698V16.573L6.34743 12.6704C6.22687 12.5499 6.06335 12.4821 5.89286 12.4821H4.0254C3.51718 12.4821 3.13312 12.1955 3.03127 11.8257C2.87134 11.2451 2.78571 10.6331 2.78571 9.99998C2.78571 9.36688 2.87134 8.75481 3.03127 8.17424C3.13312 7.8045 3.51718 7.51784 4.0254 7.51784H5.89286C6.06335 7.51784 6.22687 7.45011 6.34743 7.32955L10.25 3.42698ZM9.37135 2.48735C10.1701 1.68865 11.5357 2.25433 11.5357 3.38386V16.6161C11.5357 17.7456 10.1701 18.3113 9.37135 17.5126L5.62658 13.7678H4.0254C3.06805 13.7678 2.0791 13.2104 1.79173 12.1672C1.60144 11.4764 1.5 10.7495 1.5 9.99998C1.5 9.25043 1.60144 8.52354 1.79173 7.83279C2.0791 6.78958 3.06805 6.23212 4.0254 6.23212H5.62658L9.37135 2.48735L9.82592 2.94192L10.2679 3.38386M9.82592 2.94192L9.37135 2.48735L9.82592 2.94192ZM14.9026 7.67041C15.1536 7.41936 15.5607 7.41936 15.8117 7.67041L17.2321 9.09084L18.6526 7.67041C18.9036 7.41936 19.3107 7.41936 19.5617 7.67041C19.8128 7.92146 19.8128 8.3285 19.5617 8.57955L18.1413 9.99998L19.5617 11.4204C19.8128 11.6715 19.8128 12.0785 19.5617 12.3296C19.3107 12.5806 18.9036 12.5806 18.6526 12.3296L17.2321 10.9091L15.8117 12.3296C15.5607 12.5806 15.1536 12.5806 14.9026 12.3296C14.6515 12.0785 14.6515 11.6715 14.9026 11.4204L16.323 9.99998L14.9026 8.57955C14.6515 8.3285 14.6515 7.92146 14.9026 7.67041Z" fill="white"/>
</svg>
