<svg width="36" height="36" viewBox="0 0 36 36" fill="none" xmlns="http://www.w3.org/2000/svg">
<path d="M29.7867 25.8679C30.5475 24.7641 30.8878 23.4042 30.6446 22.021C30.3886 20.5653 29.5282 19.3486 28.3426 18.5726L28.3426 17.2384C30.1 18.1299 31.4232 19.7674 31.7842 21.8206C32.0834 23.5219 31.6612 25.1872 30.739 26.525L30.699 26.5886C30.6403 26.6928 30.6232 26.7807 30.6271 26.8453L30.6402 26.9111C30.8024 27.3395 31.0642 27.7075 31.3898 27.9901C31.5438 28.1238 31.6164 28.3288 31.5803 28.5295C31.5441 28.7301 31.4048 28.8972 31.2139 28.9687C31.0971 29.0125 30.9778 29.0516 30.8566 29.0859C30.709 29.1276 30.5575 29.1622 30.4036 29.1892C29.5097 29.3464 28.6292 29.2281 27.8434 28.8975C27.3467 29.1133 26.8163 29.2754 26.2588 29.3735C24.1221 29.7492 22.2414 29.4359 20.82 28.2338L21.8489 27.6074C22.9777 28.3805 24.4148 28.5229 26.0584 28.2338C26.605 28.1377 27.1189 27.9688 27.5911 27.741C27.7315 27.6733 27.8925 27.6656 28.0375 27.7175L28.0986 27.7435C28.6641 28.0225 29.2994 28.1483 29.9506 28.0833C29.7947 27.8474 29.661 27.593 29.558 27.3209L29.5237 27.2175C29.3934 26.7715 29.5108 26.3393 29.6964 26.0115L29.7867 25.8679Z" fill="white" stroke="white" stroke-width="0.8" stroke-linecap="round" stroke-linejoin="round"/>
<path d="M24.3879 16.4692C24.3879 11.5333 20.1918 7.45824 14.9231 7.45824C9.65432 7.45824 5.45824 11.5333 5.45824 16.4692C5.4583 18.8459 6.42403 21.0127 8.01568 22.6295L8.20819 22.8424C8.61363 23.3343 8.93592 24.0204 8.84947 24.8019L8.82269 24.9842C8.73069 25.4681 8.58242 25.9312 8.39178 26.3701C9.49621 26.2875 10.5183 25.8917 11.3789 25.2609L11.4732 25.1997C11.6997 25.0706 11.9703 25.0364 12.2241 25.1079C13.0779 25.3492 13.9839 25.4802 14.9231 25.4802C20.1918 25.4802 24.3878 21.4051 24.3879 16.4692ZM26.3462 16.4692C26.346 22.5677 21.1903 27.4384 14.9231 27.4384C13.9651 27.4384 13.0337 27.3236 12.1425 27.1095C10.9296 27.8909 9.49684 28.3461 7.96086 28.3462C7.6965 28.3462 7.4337 28.3329 7.17553 28.3066V28.3054C6.96347 28.2838 6.75311 28.2548 6.54573 28.2161C6.20654 28.1528 5.92544 27.9152 5.80629 27.5914C5.68727 27.2674 5.74816 26.9045 5.96565 26.6365C6.42551 26.0702 6.75405 25.38 6.89888 24.6184L6.90142 24.5049C6.88886 24.3961 6.83469 24.2546 6.70637 24.0982L6.62095 24.0039C4.69179 22.0444 3.50006 19.3925 3.5 16.4692C3.5 10.3706 8.65576 5.5 14.9231 5.5C21.1904 5.5 26.3462 10.3706 26.3462 16.4692Z" fill="white" stroke="white" stroke-width="0.3" stroke-linecap="round" stroke-linejoin="round"/>
<ellipse cx="15.1209" cy="20.9734" rx="1.00008" ry="0.999985" fill="white" stroke="white" stroke-width="0.2"/>
<path d="M14.29 18.2786V18.0005C14.29 16.6492 15.175 15.9422 15.7766 15.5331C16.2818 15.1896 16.5118 14.9293 16.5118 14.4778C16.5116 13.716 15.8847 13.0888 15.1228 13.0888C14.3612 13.0891 13.7341 13.7162 13.7338 14.4778C13.7338 14.9381 13.3612 15.312 12.901 15.312C12.4407 15.312 12.0681 14.9381 12.0681 14.4778C12.0684 12.7956 13.4407 11.4234 15.1228 11.4231C16.8052 11.4231 18.1786 12.7954 18.1789 14.4778C18.1789 15.8041 17.32 16.5006 16.7139 16.9126C16.2048 17.2589 15.9571 17.5299 15.957 18.0005V18.2786C15.957 18.7388 15.5831 19.1114 15.1228 19.1114C14.6628 19.1111 14.29 18.7386 14.29 18.2786Z" fill="white" stroke="white" stroke-width="0.2" stroke-linecap="round" stroke-linejoin="round"/>
</svg>
