<svg width="36" height="36" viewBox="0 0 36 36" fill="none" xmlns="http://www.w3.org/2000/svg">
<path d="M30.25 27V29.25H5.75V28.125V27H30.25ZM31.75 25.5V22.7446C29.9763 21.902 28.75 20.0943 28.75 18C28.75 15.9055 29.976 14.0964 31.75 13.2539V10.5C31.75 9.67157 31.0784 9 30.25 9H5.75C4.97349 9 4.33432 9.59 4.25732 10.3462L4.25 10.5V13.2539C6.02399 14.0964 7.25 15.9055 7.25 18C7.25 20.0943 6.02368 21.902 4.25 22.7446V25.5C4.25 26.3284 4.92157 27 5.75 27V28.125V29.25C3.67893 29.25 2 27.5711 2 25.5V21C3.65685 21 5 19.6569 5 18C5 16.3431 3.65685 15 2 15V10.5C2 8.42893 3.67893 6.75 5.75 6.75H30.25C32.3211 6.75 34 8.42893 34 10.5V15C32.3431 15 31 16.3431 31 18C31 19.6569 32.3431 21 34 21V25.5C34 27.5711 32.3211 29.25 30.25 29.25V27C31.0265 27 31.6657 26.41 31.7427 25.6538L31.75 25.5Z" fill="white"/>
<path d="M14.9769 23V21.98C15.7849 21.26 16.4729 20.592 17.0409 19.976C17.6169 19.36 18.0569 18.788 18.3609 18.26C18.6649 17.724 18.8169 17.228 18.8169 16.772C18.8169 16.484 18.7649 16.232 18.6609 16.016C18.5569 15.8 18.4049 15.636 18.2049 15.524C18.0129 15.404 17.7729 15.344 17.4849 15.344C17.1649 15.344 16.8689 15.436 16.5969 15.62C16.3329 15.796 16.0889 16.008 15.8649 16.256L14.8809 15.308C15.2969 14.86 15.7209 14.524 16.1529 14.3C16.5929 14.068 17.1129 13.952 17.7129 13.952C18.2729 13.952 18.7609 14.068 19.1769 14.3C19.6009 14.524 19.9289 14.84 20.1609 15.248C20.3929 15.656 20.5089 16.136 20.5089 16.688C20.5089 17.224 20.3729 17.772 20.1009 18.332C19.8369 18.884 19.4809 19.436 19.0329 19.988C18.5849 20.54 18.0889 21.084 17.5449 21.62C17.7769 21.588 18.0249 21.564 18.2889 21.548C18.5609 21.524 18.8009 21.512 19.0089 21.512H20.9289V23H14.9769Z" fill="white"/>
</svg>
