<svg width="20" height="20" viewBox="0 0 20 20" fill="none" xmlns="http://www.w3.org/2000/svg">
<path fill-rule="evenodd" clip-rule="evenodd" d="M10.1797 3.59946L6.18984 7.58931H4.02652C3.54325 7.58931 3.1928 7.86092 3.10125 8.19325C2.94301 8.7677 2.85826 9.37339 2.85826 10C2.85826 10.6266 2.94301 11.2323 3.10125 11.8068C3.1928 12.1391 3.54325 12.4107 4.02652 12.4107H6.18984L10.1797 16.4006V3.59946ZM9.32196 2.43688C10.1657 1.59318 11.6083 2.19073 11.6083 3.3839V16.6161C11.6083 17.8093 10.1657 18.4069 9.32196 17.5632L5.59811 13.8393H4.02652C3.04422 13.8393 2.02166 13.2668 1.72398 12.1862C1.53201 11.4893 1.42969 10.756 1.42969 10C1.42969 9.244 1.53201 8.51073 1.72398 7.81385C2.02166 6.73324 3.04422 6.16073 4.02652 6.16073H5.59811L9.32196 2.43688ZM16.4065 4.1916C16.6855 3.91265 17.1377 3.91265 17.4167 4.1916C20.6246 7.39948 20.6246 12.6005 17.4167 15.8084C17.1377 16.0873 16.6855 16.0873 16.4065 15.8084C16.1276 15.5294 16.1276 15.0771 16.4065 14.7982C19.0565 12.1482 19.0565 7.85174 16.4065 5.20175C16.1276 4.92281 16.1276 4.47054 16.4065 4.1916ZM14.1971 6.40138C14.476 6.12243 14.9283 6.12243 15.2072 6.40138C17.1947 8.38887 17.1947 11.6112 15.2072 13.5987C14.9283 13.8777 14.476 13.8777 14.1971 13.5987C13.9181 13.3198 13.9181 12.8675 14.1971 12.5886C15.6267 11.159 15.6267 8.84113 14.1971 7.41153C13.9181 7.13258 13.9181 6.68032 14.1971 6.40138Z" fill="white"/>
</svg>
